<svg xmlns="http://www.w3.org/2000/svg" viewBox="0 0 512 512">
  <defs>
    <linearGradient id="bg" x1="70" y1="42" x2="440" y2="470" gradientUnits="userSpaceOnUse">
      <stop stop-color="#75B6FF"/><stop offset="1" stop-color="#2864D7"/>
    </linearGradient>
    <filter id="shadow" x="-20%" y="-20%" width="140%" height="140%">
      <feDropShadow dx="0" dy="12" stdDeviation="12" flood-opacity=".18"/>
    </filter>
  </defs>
  <rect width="512" height="512" rx="116" fill="url(#bg)"/>
  <path d="M103 159c0-25 20-45 45-45h216c25 0 45 20 45 45v194c0 25-20 45-45 45H148c-25 0-45-20-45-45V159Z" fill="#fff" fill-opacity=".94" filter="url(#shadow)"/>
  <path d="m124 155 132 105 132-105" fill="none" stroke="#2C6DDD" stroke-width="25" stroke-linecap="round" stroke-linejoin="round"/>
  <path d="M337 280a55 55 0 1 0-82 48l27 47 27-47a55 55 0 0 0 28-48Z" fill="#FF5D64" stroke="#fff" stroke-width="13"/>
  <circle cx="282" cy="280" r="17" fill="#fff"/>
</svg>
